# This file uses centimeters as units for non-parametric coordinates.

mtllib HP_Eraser.mtl
g default
v -0.667949 -0.079292 1.697890
v 0.667949 -0.079292 1.697890
v -0.667949 1.030877 2.268632
v 0.667949 1.030877 2.268632
v -0.667949 1.030877 -2.268632
v 0.667949 1.030877 -2.268632
v -0.667949 -0.079292 -2.928730
v 0.667949 -0.079292 -2.928730
v 0.667949 -0.079292 -2.848640
v -0.667949 -0.079292 -2.848640
v -0.667949 1.030877 -2.190089
v 0.667949 1.030877 -2.190089
v 0.667949 -0.079292 1.629281
v -0.667949 -0.079292 1.629281
v -0.667949 1.030877 2.201349
v 0.667949 1.030877 2.201349
v 0.604707 -0.079292 -2.928730
v 0.604707 -0.079292 -2.848640
v 0.604707 -0.079292 1.629281
v 0.604707 -0.079292 1.697890
v 0.604707 1.030877 2.268632
v 0.604707 1.030877 2.201349
v 0.604707 1.030877 -2.190089
v 0.604707 1.030877 -2.268632
v -0.598329 -0.079292 -2.928730
v -0.598329 -0.079292 -2.848640
v -0.598329 -0.079292 1.629281
v -0.598329 -0.079292 1.697890
v -0.598329 1.030877 2.268632
v -0.598329 1.030877 2.201349
v -0.598329 1.030877 -2.190089
v -0.598329 1.030877 -2.268632
vt 0.469953 0.204911
vt 0.534087 0.203635
vt -0.055948 0.703308
vt -0.059196 0.311641
vt 0.876693 0.304375
vt 0.973361 0.307139
vt 0.874021 0.397837
vt 0.970689 0.400601
vt 0.864447 0.732627
vt 0.961115 0.735391
vt 0.729604 0.098151
vt 0.727020 0.160115
vt 0.270396 0.107285
vt 0.275442 0.169098
vt 0.970523 0.406396
vt 0.726219 0.099977
vt 0.273851 0.108975
vt 0.873855 0.403632
vt 0.278830 0.170756
vt 0.910480 0.688647
vt 0.907233 0.296980
vt 0.723701 0.161906
vt 0.961257 0.730427
vt 0.536986 0.202071
vt 0.466994 0.203463
vt 0.864589 0.727662
vt 0.468243 0.263418
vt -0.041364 0.703087
vt -0.044612 0.311420
vt 0.538122 0.262028
vt 0.966112 0.400470
vt 0.965947 0.406266
vt 0.956681 0.730296
vt 0.531051 0.203695
vt 0.956539 0.735260
vt -0.059042 0.330183
vt -0.044458 0.329962
vt 0.907387 0.315522
vt 0.968785 0.307008
vt 0.879059 0.397981
vt 0.878893 0.403776
vt 0.869627 0.727806
vt 0.473296 0.204844
vt 0.869485 0.732771
vt -0.056117 0.682896
vt -0.041534 0.682675
vt 0.910311 0.668235
vt 0.881731 0.304519
vt 0.927335 0.667977
vt 0.924411 0.315264
vt 0.474488 0.264771
vt 0.532243 0.263623
vt 0.924257 0.296722
vt 0.535279 0.263562
vt 0.927505 0.688389
vt 0.471146 0.264838
vn 0.000000 -0.457220 0.889353
vn 0.000000 -0.457220 0.889353
vn 0.000000 -0.457220 0.889353
vn 0.000000 -0.457220 0.889353
vn 0.000000 1.000000 0.000000
vn 0.000000 1.000000 0.000000
vn 0.000000 1.000000 0.000000
vn 0.000000 1.000000 0.000000
vn 0.000000 0.511074 -0.859537
vn 0.000000 0.511074 -0.859537
vn 0.000000 0.511074 -0.859537
vn 0.000000 0.511074 -0.859537
vn 0.000000 -1.000000 0.000000
vn 0.000000 -1.000000 0.000000
vn 0.000000 -1.000000 0.000000
vn 0.000000 -1.000000 0.000000
vn 1.000000 0.000000 0.000000
vn 1.000000 0.000000 0.000000
vn 1.000000 0.000000 0.000000
vn 1.000000 0.000000 0.000000
vn -1.000000 0.000000 0.000000
vn -1.000000 0.000000 0.000000
vn -1.000000 0.000000 0.000000
vn -1.000000 0.000000 0.000000
vn 0.000000 -1.000000 0.000000
vn 0.000000 -1.000000 0.000000
vn -1.000000 0.000000 0.000000
vn -1.000000 0.000000 0.000000
vn 0.000000 1.000000 0.000000
vn 0.000000 1.000000 0.000000
vn 1.000000 0.000000 0.000000
vn 1.000000 0.000000 0.000000
vn 0.000000 -1.000000 0.000000
vn 0.000000 -1.000000 0.000000
vn -1.000000 0.000000 0.000000
vn -1.000000 0.000000 0.000000
vn 0.000000 1.000000 0.000000
vn 0.000000 1.000000 0.000000
vn 1.000000 0.000000 0.000000
vn 1.000000 0.000000 0.000000
vn 0.000000 -1.000000 0.000000
vn 0.000000 -1.000000 0.000000
vn 0.000000 -1.000000 0.000000
vn 0.000000 -1.000000 0.000000
vn 0.000000 -1.000000 0.000000
vn 0.000000 -1.000000 0.000000
vn 0.000000 -1.000000 0.000000
vn 0.000000 -1.000000 0.000000
vn 0.000000 -0.457220 0.889353
vn 0.000000 -0.457220 0.889353
vn 0.000000 -0.457220 0.889353
vn 0.000000 -0.457220 0.889353
vn 0.000000 1.000000 0.000000
vn 0.000000 1.000000 0.000000
vn 0.000000 1.000000 0.000000
vn 0.000000 1.000000 0.000000
vn 0.000000 1.000000 0.000000
vn 0.000000 1.000000 0.000000
vn 0.000000 1.000000 0.000000
vn 0.000000 1.000000 0.000000
vn 0.000000 0.511074 -0.859537
vn 0.000000 0.511074 -0.859537
vn 0.000000 0.511074 -0.859537
vn 0.000000 0.511074 -0.859537
s 1
g Eraser
usemtl aiStandardSurface1SG
f 1/1/1 28/43/2 29/51/3 3/56/4
s 2
f 11/20/5 31/47/6 32/49/7 5/55/8
s 3
f 5/5/9 32/48/10 25/40/11 7/7/12
s 4
f 7/7/13 25/40/14 26/41/15 10/18/16
s 5
f 12/22/17 9/16/18 8/11/19 6/12/20
s 6
f 7/13/21 10/17/22 11/19/23 5/14/24
s 4
f 10/18/16 26/41/15 27/42/25 14/26/26
s 6
f 11/19/23 10/17/22 14/25/27 15/27/28
s 2
f 15/28/29 30/46/30 31/47/6 11/20/5
s 5
f 16/30/31 13/24/32 9/16/18 12/22/17
s 4
f 14/26/26 27/42/25 28/44/33 1/9/34
s 6
f 15/27/28 14/25/27 1/1/35 3/56/36
s 2
f 3/3/37 29/45/38 30/46/30 15/28/29
s 5
f 2/2/39 13/24/32 16/30/31 4/54/40
s 4
f 17/31/41 8/8/42 9/15/43 18/32/44
f 19/33/45 18/32/44 9/15/43 13/23/46
f 20/35/47 19/33/45 13/23/46 2/10/48
s 1
f 21/52/49 20/34/50 2/2/51 4/54/52
s 2
f 22/37/53 21/36/54 4/4/55 16/29/56
f 23/38/57 22/37/53 16/29/56 12/21/58
f 24/50/59 23/38/57 12/21/58 6/53/60
s 3
f 17/31/61 24/39/62 6/6/63 8/8/64
s 4
f 25/40/14 17/31/41 18/32/44 26/41/15
f 27/42/25 26/41/15 18/32/44 19/33/45
f 28/44/33 27/42/25 19/33/45 20/35/47
s 1
f 29/51/3 28/43/2 20/34/50 21/52/49
s 2
f 30/46/30 29/45/38 21/36/54 22/37/53
f 31/47/6 30/46/30 22/37/53 23/38/57
f 32/49/7 31/47/6 23/38/57 24/50/59
s 3
f 25/40/11 32/48/10 24/39/62 17/31/61
